<?xml version="1.0" encoding="UTF-8" standalone="no"?>
<!DOCTYPE svg PUBLIC "-//W3C//DTD SVG 1.1//EN" "http://www.w3.org/Graphics/SVG/1.1/DTD/svg11.dtd">
<svg width="100%" height="100%" viewBox="0 0 898 899" version="1.1" xmlns="http://www.w3.org/2000/svg" xmlns:xlink="http://www.w3.org/1999/xlink" xml:space="preserve" xmlns:serif="http://www.serif.com/" style="fill-rule:evenodd;clip-rule:evenodd;stroke-linejoin:round;stroke-miterlimit:2;">
    <g transform="matrix(1,0,0,1,-483.128368,-65.713874)">
        <g id="logo.png" transform="matrix(1.91937,0,0,1.91937,478.082061,62.025286)">
            <g transform="matrix(0.505954,0,0,0.521004,-241.811529,-32.315436)">
                <path d="M1407.023,65.714L1407.023,964.075L483.128,964.075L483.128,65.714L1407.023,65.714ZM1373.127,98.631L517.024,98.631L517.024,931.158L1373.127,931.158L1373.127,98.631Z" style="fill:rgb(145,166,124);"/>
            </g>
            <g transform="matrix(1.897087,0,0,1.897087,-383.261353,-395.809141)">
                <path d="M421.966,379.5C422,392.121 423.442,413.05 390.574,426.682C378.602,431.647 360.859,425.523 358.423,424.683C353.711,423.056 354.66,421.687 347.395,417.664C344.829,416.243 322.261,391.016 336.668,365.602C363.181,318.837 419.799,344.639 421.966,379.5L377.5,352.966C343.523,354.94 337.242,396.526 361.603,410.332C397.743,430.815 412.965,386.77 406.65,375.425C398.117,360.096 398.393,356.553 377.5,352.966L421.966,379.5Z" style="fill:rgb(145,166,124);"/>
            </g>
            <g transform="matrix(1.989945,0,0,1.989945,-28.962259,-442.239913)">
                <path d="M49.034,380.5C49.034,350.288 48.126,344.94 51.505,344.966C70.942,345.11 70.879,343.574 83.542,346.001C96.749,348.532 107.813,367.75 90.464,382.47C88.594,384.057 103.115,393.222 103.032,401.504C102.723,432.55 82.689,429.075 52.493,428.963C48.092,428.947 49.034,426.382 49.034,380.5L73.5,417.034C94.681,415.215 94.33,392.843 73.556,391.079C72.696,391.006 63.048,390.187 63.035,393.488C63.028,395.244 62.951,415.322 62.983,415.448C63.504,417.485 64.345,416.561 73.5,417.034L49.034,380.5L69.5,380.034C78.203,379.562 87.677,379.906 84.005,362.551C83.748,361.337 83.793,361.311 76.575,357.35C60.768,348.675 62.182,360.545 62.983,378.448C63.074,380.489 63.976,379.559 69.5,380.034L49.034,380.5Z" style="fill:rgb(145,166,124);"/>
            </g>
            <g transform="matrix(1.984892,0,0,1.984892,-444.97741,-36.39237)">
                <path d="M419.5,130.966C418.256,130.917 412.898,134.625 404.78,123.26C384.335,94.636 382.453,92.723 381.343,95.415C379.864,98.999 383.512,130.704 378.561,130.921C361.835,131.653 368.034,123.141 368.034,106.5C368.034,47.253 367.725,46.143 369.396,46.081C410.779,44.536 415.864,50.124 416.032,75.496C416.109,87.019 397.554,92.009 398.814,94.303C398.912,94.48 414.548,113.97 420.331,122.603C424.029,128.123 424.077,128.086 424.246,128.59C425.386,131.977 423.094,130.707 419.5,130.966L381.966,66.5C381.993,77.607 379.267,82.849 390.458,82.001C407.613,80.701 403.371,59.595 393.556,59.079C389.977,58.891 390.131,59.11 386.546,58.327C380.58,57.025 382.412,60.479 381.966,66.5L419.5,130.966Z" style="fill:rgb(145,166,124);"/>
            </g>
            <g transform="matrix(1.950391,0,0,1.950391,-43.985338,-36.075105)">
                <path d="M101.5,110.966C81.358,110.966 73.495,109.953 72.318,113.423C64.393,136.777 59.368,133.262 52.543,133.003C46.777,132.784 58.417,114.102 62.706,103.603C73.373,77.495 75.566,78.604 86.651,52.577C88.576,48.057 89.271,43.97 91.67,48.395C93.944,52.591 125.661,121.062 126.318,122.577C130.584,132.429 128.395,132.89 127.562,132.922C124.53,133.038 115.219,135.425 114.001,126.543C113.882,125.671 113.088,126.012 109.317,116.577C107.315,111.566 106.897,111.434 101.5,110.966L95.5,99.034C108.18,98.161 96.299,91.726 93.315,80.574C93.159,79.99 90.254,69.132 89.038,74.345C86.228,86.393 76.829,98.829 80.358,98.946C81.569,98.986 81.48,98.953 95.5,99.034L101.5,110.966Z" style="fill:rgb(145,166,124);"/>
            </g>
        </g>
    </g>
</svg>
